<svg id="Layer_1" data-name="Layer 1" xmlns="http://www.w3.org/2000/svg" viewBox="0 0 556 232"><defs><style>.cls-1{fill:#494c51;}.cls-2{fill:#93c01f;}.cls-3{fill:#fff;}</style></defs><title>stem</title><path class="cls-1" d="M158.47,146.34H127V135H152.1V124.89H133.35a6.57,6.57,0,0,1-4.48-1.65,5.22,5.22,0,0,1-1.9-4.1v-21a5.12,5.12,0,0,1,1.9-4,6.62,6.62,0,0,1,4.48-1.65h31.37v11.39h-25v9.44h18.75a6.41,6.41,0,0,1,4.42,1.66,5.31,5.31,0,0,1,1.83,4.11v21.44a5.34,5.34,0,0,1-1.83,4.12A6.39,6.39,0,0,1,158.47,146.34Z"/><path class="cls-1" d="M206.85,104.06H194.47v42.28H181.85V104.06H169.47V92.78h37.38Z"/><path class="cls-1" d="M225.82,104.3v9.81h15.32v11.28H225.82v9.68h27.82v11.27h-40.2V92.78h40.2V104.3Z"/><polygon class="cls-1" points="319.05 92.78 319.05 145.87 305.88 145.87 305.88 105.07 297.04 105.07 297.04 145.84 283.89 145.84 283.89 105.09 275.14 105.07 275.09 145.84 261.81 145.84 261.81 92.78 319.05 92.78"/><path class="cls-2" d="M112.15,152.46c0,5-3.7,8.76-8.26,8.25L47.6,148.89c-4.56-.58-8.25-4.18-8.25-8.25V96.16c0-3,3.69-6.84,8.25-8.25l56.29-11.82c4.56-1.49,8.26,2.1,8.26,8.25Z"/><path class="cls-3" d="M96.85,91l-10.31.66h-.21l-27.5,1.79c-4.19.82-7.59,3.72-7.59,6.51,0,6.61-.73,6,3.4,6.21l10.32.67.2,0,27.51,1.79c4.18-.27,7.58-4.13,7.58-8.71C100.25,89.82,101,90.71,96.85,91Z"/><path class="cls-3" d="M96.85,129.71l-10.31.67h-.21l-27.5,1.79c-4.19.82-7.59,3.72-7.59,6.51,0,6.61-.73,5.95,3.4,6.21l10.32.67.2,0,27.51,1.79c4.18-.27,7.58-4.13,7.58-8.71C100.25,128.54,101,129.43,96.85,129.71Z"/><path class="cls-3" d="M100.26,119.34c0-3.55-3.4-6.37-7.59-6.27L65.17,111a1.48,1.48,0,0,1-.21,0l-10.32-.8c-4.13-.3-3.4-1.28-3.4,9.24,0,5.84,3.4,9.86,7.6,8.88l27.49-2.13a1.6,1.6,0,0,1,.21-.05l10.32-.79C101,125,100.26,125.67,100.26,119.34Z"/><path class="cls-2" d="M408.83,145.85H378.49a6.44,6.44,0,0,1-4.36-1.57,5.05,5.05,0,0,1-1.82-4V98.41a5.1,5.1,0,0,1,1.82-3.94,6.3,6.3,0,0,1,4.36-1.64h30.34a6.35,6.35,0,0,1,4.37,1.64A5.13,5.13,0,0,1,415,98.41v41.86a5.08,5.08,0,0,1-1.82,4A6.48,6.48,0,0,1,408.83,145.85Zm-24-11.28h17.72V104.12H384.8Z"/><path class="cls-2" d="M457.51,92.83a6.4,6.4,0,0,1,4.31,1.64,5.19,5.19,0,0,1,1.88,4.07v41.73a5,5,0,0,1-1.88,4,6.53,6.53,0,0,1-4.31,1.57H421.6v-53ZM434,104.24v9.46h17.36v-9.46Zm17.36,30.45v-9.58H434v9.58Z"/><path class="cls-2" d="M501.47,145.85H470.29V134.57h24.87v-9.95H476.6a6.53,6.53,0,0,1-4.43-1.64,5.14,5.14,0,0,1-1.88-4.06V98.17a5,5,0,0,1,1.88-3.94,6.53,6.53,0,0,1,4.43-1.64h31.06v11.28H482.91v9.35h18.56a6.28,6.28,0,0,1,4.37,1.64,5.24,5.24,0,0,1,1.82,4.06v21.23a5.28,5.28,0,0,1-1.82,4.07A6.32,6.32,0,0,1,501.47,145.85Z"/><path class="cls-2" d="M365.73,92.79v47.36a5.25,5.25,0,0,1-1.82,4.07,6.33,6.33,0,0,1-4.38,1.63H331.74a6.28,6.28,0,0,1-4.36-1.63,5.22,5.22,0,0,1-1.82-4.07V116.61h12.5v18h15v-29.5H337.93V92.79Z"/><path class="cls-1" d="M337.86,159.13a7,7,0,0,1-.51,2.7,6.17,6.17,0,0,1-1.42,2.14,6.54,6.54,0,0,1-2.21,1.41,7.76,7.76,0,0,1-2.87.51h-5.24V152.38h5.24a7.76,7.76,0,0,1,2.87.51,6.54,6.54,0,0,1,2.21,1.41,6.17,6.17,0,0,1,1.42,2.14A7,7,0,0,1,337.86,159.13Zm-3.21,0a6,6,0,0,0-.26-1.81,3.87,3.87,0,0,0-.74-1.36,3.28,3.28,0,0,0-1.19-.86,4.09,4.09,0,0,0-1.61-.31h-2.09v8.69h2.09a4.09,4.09,0,0,0,1.61-.3,3.3,3.3,0,0,0,1.19-.87,3.79,3.79,0,0,0,.74-1.36A6.06,6.06,0,0,0,334.65,159.13Z"/><path class="cls-1" d="M352.68,159.13a7.24,7.24,0,0,1-.5,2.73,6.83,6.83,0,0,1-1.42,2.19,6.76,6.76,0,0,1-2.21,1.46,8.18,8.18,0,0,1-5.74,0,6.6,6.6,0,0,1-2.22-1.46,6.7,6.7,0,0,1-1.43-2.19,7.24,7.24,0,0,1-.51-2.73,7.16,7.16,0,0,1,.51-2.72,6.49,6.49,0,0,1,1.43-2.19,6.6,6.6,0,0,1,2.22-1.46,7.56,7.56,0,0,1,2.87-.52,7.41,7.41,0,0,1,2.87.53,6.61,6.61,0,0,1,2.21,1.46,6.52,6.52,0,0,1,1.42,2.19A7.14,7.14,0,0,1,352.68,159.13Zm-3.2,0a5.88,5.88,0,0,0-.26-1.8,3.66,3.66,0,0,0-.75-1.36,3.2,3.2,0,0,0-1.19-.85,4,4,0,0,0-1.6-.3,4.11,4.11,0,0,0-1.62.3,3.2,3.2,0,0,0-1.19.85,3.66,3.66,0,0,0-.75,1.36,5.88,5.88,0,0,0-.26,1.8,6,6,0,0,0,.26,1.81,3.66,3.66,0,0,0,.75,1.36,3.2,3.2,0,0,0,1.19.85,4.29,4.29,0,0,0,1.62.29,4.23,4.23,0,0,0,1.6-.29,3.2,3.2,0,0,0,1.19-.85,3.66,3.66,0,0,0,.75-1.36A6,6,0,0,0,349.48,159.13Z"/><path class="cls-1" d="M356.74,152.38h2.63a1.21,1.21,0,0,1,.68.19.8.8,0,0,1,.36.49l1.85,7c.07.23.13.48.19.74a6.84,6.84,0,0,1,.14.81c.06-.29.13-.56.2-.82l.22-.73,2.18-7a1.07,1.07,0,0,1,1-.68h.93a1.11,1.11,0,0,1,.67.19.91.91,0,0,1,.37.49l2.16,7c.07.22.14.45.22.69s.14.51.19.79c.05-.28.1-.53.16-.78s.1-.48.16-.7l1.85-7a.88.88,0,0,1,.35-.47,1.09,1.09,0,0,1,.67-.21h2.47l-4.18,13.51H369.4l-2.54-8.37c0-.13-.09-.27-.13-.43s-.1-.32-.14-.49c0,.17-.09.34-.13.49s-.09.3-.14.43l-2.57,8.37h-2.84Z"/><path class="cls-1" d="M389.4,165.89h-3.15v-5.71h-5.49v5.71h-3.15V152.38h3.15V158h5.49v-5.65h3.15Z"/><path class="cls-1" d="M404.19,165.89h-2.43a1.15,1.15,0,0,1-.67-.19,1,1,0,0,1-.37-.49l-.8-2.35h-5.13l-.8,2.35a1.07,1.07,0,0,1-1,.68h-2.44l5.22-13.51H399Zm-8.68-5.17h3.69L398,157c-.08-.24-.18-.51-.28-.83s-.22-.66-.32-1c-.1.38-.2.73-.31,1.05s-.2.6-.29.84Z"/><path class="cls-1" d="M413.6,152.38v2.49h-3.8v11h-3.13v-11h-3.8v-2.49Z"/><path class="cls-1" d="M425.2,160.75v5.14h-3.13v-5.14l-4.89-8.37h2.76a1.07,1.07,0,0,1,.65.19,1.46,1.46,0,0,1,.39.49l1.9,3.93.43.87a7.52,7.52,0,0,1,.34.79c.1-.27.21-.53.34-.8l.42-.86,1.89-3.93a.79.79,0,0,1,.15-.24,1.52,1.52,0,0,1,.22-.22,1.15,1.15,0,0,1,.29-.16,1,1,0,0,1,.35-.06h2.78Z"/><path class="cls-1" d="M443.6,159.13a7.24,7.24,0,0,1-.5,2.73,6.83,6.83,0,0,1-1.42,2.19,6.66,6.66,0,0,1-2.21,1.46,8.18,8.18,0,0,1-5.74,0,6.6,6.6,0,0,1-2.22-1.46,6.7,6.7,0,0,1-1.43-2.19,7.24,7.24,0,0,1-.5-2.73,7.15,7.15,0,0,1,.5-2.72,6.49,6.49,0,0,1,1.43-2.19,6.6,6.6,0,0,1,2.22-1.46,7.56,7.56,0,0,1,2.87-.52,7.37,7.37,0,0,1,2.87.53,6.43,6.43,0,0,1,3.63,3.65A7.14,7.14,0,0,1,443.6,159.13Zm-3.2,0a5.88,5.88,0,0,0-.26-1.8,3.66,3.66,0,0,0-.75-1.36,3.2,3.2,0,0,0-1.19-.85,4,4,0,0,0-1.6-.3,4.14,4.14,0,0,0-1.62.3,3.2,3.2,0,0,0-1.19.85,3.66,3.66,0,0,0-.75,1.36,5.88,5.88,0,0,0-.26,1.8,6,6,0,0,0,.26,1.81,3.66,3.66,0,0,0,.75,1.36,3.2,3.2,0,0,0,1.19.85,4.33,4.33,0,0,0,1.62.29,4.23,4.23,0,0,0,1.6-.29,3.2,3.2,0,0,0,1.19-.85,3.66,3.66,0,0,0,.75-1.36A6,6,0,0,0,440.4,159.13Z"/><path class="cls-1" d="M450.72,163.41a2.88,2.88,0,0,0,1.13-.21,2.2,2.2,0,0,0,.84-.6,2.67,2.67,0,0,0,.52-.94,4.21,4.21,0,0,0,.18-1.28v-8h3.13v8a6.21,6.21,0,0,1-.4,2.28,5.15,5.15,0,0,1-1.15,1.79,5.23,5.23,0,0,1-1.83,1.17,7.38,7.38,0,0,1-4.85,0,5.28,5.28,0,0,1-1.82-1.17,5,5,0,0,1-1.15-1.79,6.21,6.21,0,0,1-.4-2.28v-8h3.13v8a4.21,4.21,0,0,0,.18,1.28,2.66,2.66,0,0,0,.53.95,2.12,2.12,0,0,0,.84.6A2.83,2.83,0,0,0,450.72,163.41Z"/><path class="cls-1" d="M465.27,163.38h5v2.51h-8.13V152.38h3.13Z"/><path class="cls-1" d="M484.34,159.13a7.24,7.24,0,0,1-.51,2.73,6.43,6.43,0,0,1-3.63,3.65,8.18,8.18,0,0,1-5.74,0,6.47,6.47,0,0,1-3.65-3.65,7.44,7.44,0,0,1-.5-2.73,7.35,7.35,0,0,1,.5-2.72,6.65,6.65,0,0,1,1.43-2.19,6.8,6.8,0,0,1,2.22-1.46,7.6,7.6,0,0,1,2.87-.52,7.37,7.37,0,0,1,2.87.53,6.51,6.51,0,0,1,2.21,1.46,6.37,6.37,0,0,1,1.42,2.19A7.14,7.14,0,0,1,484.34,159.13Zm-3.21,0a5.59,5.59,0,0,0-.26-1.8,3.79,3.79,0,0,0-.74-1.36,3.29,3.29,0,0,0-1.19-.85,4.47,4.47,0,0,0-3.22,0,3.32,3.32,0,0,0-1.2.85,3.79,3.79,0,0,0-.74,1.36,5.59,5.59,0,0,0-.26,1.8,5.65,5.65,0,0,0,.26,1.81,3.79,3.79,0,0,0,.74,1.36,3.32,3.32,0,0,0,1.2.85,4.61,4.61,0,0,0,3.22,0,3.29,3.29,0,0,0,1.19-.85,3.79,3.79,0,0,0,.74-1.36A5.65,5.65,0,0,0,481.13,159.13Z"/><path class="cls-1" d="M484.17,152.38h2.52a1.15,1.15,0,0,1,.67.19,1,1,0,0,1,.37.49l2.61,7.23c.12.31.24.66.36,1s.23.76.34,1.17q.13-.62.3-1.17c.12-.37.23-.72.34-1l2.59-7.23a1.12,1.12,0,0,1,.36-.47,1,1,0,0,1,.66-.21h2.54l-5.41,13.51h-2.84Z"/><path class="cls-1" d="M507.64,152.38v2.41h-5.55v3.15h4.25v2.32h-4.25v3.22h5.55v2.41h-8.7V152.38Z"/><path class="cls-1" d="M508.86,164.43a1.59,1.59,0,0,1,.12-.62,1.61,1.61,0,0,1,.35-.5,1.52,1.52,0,0,1,.51-.34,1.79,1.79,0,0,1,1.29,0,1.8,1.8,0,0,1,.52.34,1.61,1.61,0,0,1,.35.5,1.59,1.59,0,0,1,.12.62,1.68,1.68,0,0,1-.12.63,1.61,1.61,0,0,1-.35.5,1.77,1.77,0,0,1-.52.33,1.67,1.67,0,0,1-1.29,0,1.5,1.5,0,0,1-.51-.33,1.61,1.61,0,0,1-.35-.5A1.68,1.68,0,0,1,508.86,164.43Z"/><path class="cls-2" d="M511.85,97.71a2.82,2.82,0,0,0,1.4.39c.8,0,1.27-.42,1.27-1s-.32-.89-1.14-1.21c-1-.35-1.6-.86-1.6-1.71a1.74,1.74,0,0,1,2-1.65,2.78,2.78,0,0,1,1.34.3l-.22.64a2.38,2.38,0,0,0-1.15-.29c-.83,0-1.14.49-1.14.91s.37.84,1.2,1.17c1,.39,1.55.89,1.55,1.78s-.69,1.74-2.12,1.74a3.1,3.1,0,0,1-1.55-.39Z"/><path class="cls-2" d="M521.5,96c0-.85-.1-1.86-.09-2.62h0c-.2.71-.45,1.47-.76,2.31l-1.07,2.94H519l-1-2.89c-.29-.86-.53-1.64-.71-2.36h0c0,.76-.07,1.77-.12,2.68l-.16,2.6h-.75l.42-6.06h1l1,2.93c.25.75.45,1.41.61,2h0c.15-.61.36-1.27.63-2L521,92.6h1l.38,6.06h-.77Z"/></svg>