<svg id="Layer_1" data-name="Layer 1" xmlns="http://www.w3.org/2000/svg" viewBox="0 0 556 232"><defs><style>.cls-1{fill:#fff;}.cls-2{fill:#93c01f;}</style></defs><title>stem-wt</title><path class="cls-1" d="M157,143.08H125.14V131.56h25.41V121.39h-19a6.69,6.69,0,0,1-4.52-1.67,5.3,5.3,0,0,1-1.92-4.16V94.36a5.17,5.17,0,0,1,1.92-4,6.69,6.69,0,0,1,4.52-1.67h31.74v11.53H138v9.54h19a6.4,6.4,0,0,1,4.46,1.68,5.37,5.37,0,0,1,1.86,4.15v21.7a5.39,5.39,0,0,1-1.86,4.16A6.42,6.42,0,0,1,157,143.08Z"/><path class="cls-1" d="M205.94,100.31H193.42v42.77H180.64V100.31H168.13V88.9h37.81Z"/><path class="cls-1" d="M225.12,100.56v9.92h15.5v11.41h-15.5v9.79h28.14v11.4H212.6V88.9h40.66v11.66Z"/><polygon class="cls-1" points="319.43 88.91 319.43 142.6 306.1 142.6 306.1 101.33 297.16 101.33 297.16 142.57 283.86 142.57 283.86 101.36 275 101.33 274.96 142.57 261.53 142.57 261.53 88.91 319.43 88.91"/><path class="cls-2" d="M110.14,149.27c0,5-3.74,8.86-8.35,8.35l-56.94-12c-4.61-.59-8.35-4.22-8.35-8.35v-45c0-3.08,3.74-6.92,8.35-8.35l56.94-12c4.61-1.5,8.35,2.13,8.35,8.35Z"/><path class="cls-1" d="M94.67,87.1l-10.43.67H84L56.21,89.58c-4.24.83-7.68,3.76-7.68,6.59,0,6.68-.74,6,3.44,6.28l10.44.68.2,0L90.44,105c4.23-.27,7.67-4.17,7.67-8.81C98.11,85.91,98.85,86.81,94.67,87.1Z"/><path class="cls-1" d="M94.67,126.26l-10.43.67H84l-27.82,1.81c-4.24.83-7.68,3.76-7.68,6.58,0,6.69-.74,6,3.44,6.28l10.44.68.2,0,27.83,1.8c4.23-.27,7.67-4.17,7.67-8.81C98.11,125.07,98.85,126,94.67,126.26Z"/><path class="cls-1" d="M98.11,115.77c0-3.59-3.43-6.44-7.67-6.34l-27.82-2.15-.21,0L52,106.49c-4.17-.31-3.43-1.31-3.43,9.34,0,5.91,3.43,10,7.68,9L84,122.66a1.6,1.6,0,0,1,.21,0l10.44-.8C98.85,121.47,98.11,122.18,98.11,115.77Z"/><path class="cls-2" d="M410.23,142.59H379.55a6.46,6.46,0,0,1-4.41-1.6,5.11,5.11,0,0,1-1.85-4.05V94.6a5.2,5.2,0,0,1,1.85-4A6.36,6.36,0,0,1,379.55,89h30.68a6.38,6.38,0,0,1,4.42,1.65,5.19,5.19,0,0,1,1.84,4v42.34a5.11,5.11,0,0,1-1.84,4.05A6.48,6.48,0,0,1,410.23,142.59Zm-24.29-11.42h17.91v-30.8H385.94Z"/><path class="cls-2" d="M459.48,89a6.46,6.46,0,0,1,4.36,1.65,5.25,5.25,0,0,1,1.9,4.12v42.21a5,5,0,0,1-1.9,4.05,6.56,6.56,0,0,1-4.36,1.6H423.16V89Zm-23.81,11.53v9.57h17.55v-9.57Zm17.55,30.81v-9.7H435.67v9.7Z"/><path class="cls-2" d="M503.94,142.59H472.4V131.17h25.16V121.11H478.78a6.58,6.58,0,0,1-4.47-1.65,5.26,5.26,0,0,1-1.91-4.12v-21a5.1,5.1,0,0,1,1.91-4,6.58,6.58,0,0,1,4.47-1.66H510.2v11.41h-25v9.46h18.77a6.4,6.4,0,0,1,4.42,1.65,5.31,5.31,0,0,1,1.84,4.11v21.48a5.28,5.28,0,0,1-1.84,4.11A6.36,6.36,0,0,1,503.94,142.59Z"/><path class="cls-2" d="M366.64,88.92v47.9a5.32,5.32,0,0,1-1.84,4.11,6.38,6.38,0,0,1-4.43,1.66h-28.1a6.32,6.32,0,0,1-4.41-1.66,5.26,5.26,0,0,1-1.85-4.11V113h12.64v18.16h15.22V101.34H338.52V88.92Z"/><path class="cls-1" d="M338.45,156a7.13,7.13,0,0,1-.51,2.73,6.3,6.3,0,0,1-1.44,2.16,6.47,6.47,0,0,1-2.24,1.43,7.88,7.88,0,0,1-2.9.51h-5.3V149.19h5.3a7.88,7.88,0,0,1,2.9.52,6.6,6.6,0,0,1,2.24,1.42,6.34,6.34,0,0,1,1.44,2.17A7.12,7.12,0,0,1,338.45,156Zm-3.24,0a5.77,5.77,0,0,0-.27-1.83,3.75,3.75,0,0,0-.75-1.38,3.21,3.21,0,0,0-1.21-.87,3.94,3.94,0,0,0-1.62-.31h-2.12v8.78h2.12a4.11,4.11,0,0,0,1.62-.3,3.21,3.21,0,0,0,1.21-.87,3.79,3.79,0,0,0,.75-1.39A5.77,5.77,0,0,0,335.21,156Z"/><path class="cls-1" d="M353.45,156a7.31,7.31,0,0,1-.51,2.75A7,7,0,0,1,351.5,161a6.68,6.68,0,0,1-2.24,1.48,7.72,7.72,0,0,1-2.9.53,7.81,7.81,0,0,1-2.91-.53,6.52,6.52,0,0,1-3.68-3.7,7.56,7.56,0,0,1,0-5.51,6.49,6.49,0,0,1,3.68-3.68,7.62,7.62,0,0,1,2.91-.54,7.53,7.53,0,0,1,2.9.54,6.68,6.68,0,0,1,2.24,1.48,6.82,6.82,0,0,1,1.44,2.21A7.35,7.35,0,0,1,353.45,156Zm-3.25,0a5.72,5.72,0,0,0-.26-1.82,3.9,3.9,0,0,0-.75-1.38A3.3,3.3,0,0,0,348,152a4.11,4.11,0,0,0-1.62-.3,4.24,4.24,0,0,0-1.64.3,3.38,3.38,0,0,0-1.21.86,4.06,4.06,0,0,0-.75,1.38,6,6,0,0,0-.26,1.82,6.08,6.08,0,0,0,.26,1.83,4,4,0,0,0,.75,1.37,3.27,3.27,0,0,0,1.21.86,4.24,4.24,0,0,0,1.64.3,4.11,4.11,0,0,0,1.62-.3,3.19,3.19,0,0,0,1.21-.86,3.85,3.85,0,0,0,.75-1.37A5.78,5.78,0,0,0,350.2,156Z"/><path class="cls-1" d="M357.55,149.19h2.66a1.22,1.22,0,0,1,.69.19.82.82,0,0,1,.36.5l1.88,7.12c.06.23.12.48.18.74a7.17,7.17,0,0,1,.15.83c.06-.3.13-.57.2-.83l.22-.74,2.21-7.12a1,1,0,0,1,.36-.47,1.08,1.08,0,0,1,.67-.22h.94a1.14,1.14,0,0,1,.68.19,1,1,0,0,1,.37.5l2.19,7.12.22.7c.07.25.14.51.19.79,0-.27.1-.53.16-.78s.11-.49.16-.71l1.87-7.12a1,1,0,0,1,.36-.48,1.1,1.1,0,0,1,.68-.21h2.49l-4.22,13.66h-2.87l-2.56-8.46c-.05-.13-.09-.28-.14-.43s-.09-.33-.14-.5c0,.17-.09.34-.13.5s-.09.3-.14.43l-2.6,8.46h-2.87Z"/><path class="cls-1" d="M390.58,162.85h-3.19v-5.77h-5.55v5.77h-3.18V149.19h3.18v5.71h5.55v-5.71h3.19Z"/><path class="cls-1" d="M405.54,162.85h-2.45a1.1,1.1,0,0,1-.68-.19,1,1,0,0,1-.38-.49l-.8-2.38H396l-.81,2.38a1,1,0,0,1-.37.47,1,1,0,0,1-.66.21h-2.48L397,149.19h3.24Zm-8.77-5.22h3.73l-1.26-3.74c-.08-.24-.18-.52-.28-.84s-.22-.67-.33-1c-.1.38-.2.73-.31,1.05a9,9,0,0,1-.3.85Z"/><path class="cls-1" d="M415.06,149.19v2.52h-3.84v11.14h-3.17V151.71h-3.84v-2.52Z"/><path class="cls-1" d="M426.8,157.66v5.19h-3.17v-5.19l-4.95-8.47h2.79a1,1,0,0,1,.66.2,1.46,1.46,0,0,1,.39.49l1.93,4,.44.88c.13.27.24.54.34.8.1-.27.21-.54.34-.81l.42-.87,1.92-4a1,1,0,0,1,.15-.25,1.52,1.52,0,0,1,.22-.22,2.69,2.69,0,0,1,.29-.16,1,1,0,0,1,.36-.06h2.82Z"/><path class="cls-1" d="M445.41,156a7.31,7.31,0,0,1-.51,2.75,6.65,6.65,0,0,1-1.44,2.22,6.54,6.54,0,0,1-2.23,1.48,8.23,8.23,0,0,1-5.81,0,6.68,6.68,0,0,1-2.24-1.48,6.52,6.52,0,0,1-1.45-2.22,7.7,7.7,0,0,1,0-5.51,6.48,6.48,0,0,1,1.45-2.21,6.66,6.66,0,0,1,2.24-1.47,8.08,8.08,0,0,1,5.81,0,6.57,6.57,0,0,1,3.67,3.69A7.35,7.35,0,0,1,445.41,156Zm-3.24,0a6,6,0,0,0-.26-1.82,3.91,3.91,0,0,0-.76-1.38A3.26,3.26,0,0,0,440,152a4.14,4.14,0,0,0-1.62-.3,4.24,4.24,0,0,0-1.64.3,3.3,3.3,0,0,0-1.21.86,3.75,3.75,0,0,0-.75,1.38,5.72,5.72,0,0,0-.26,1.82,5.78,5.78,0,0,0,.26,1.83,3.7,3.7,0,0,0,.75,1.37,3.19,3.19,0,0,0,1.21.86,4.24,4.24,0,0,0,1.64.3,4.14,4.14,0,0,0,1.62-.3,3.15,3.15,0,0,0,1.2-.86,3.86,3.86,0,0,0,.76-1.37A6.08,6.08,0,0,0,442.17,156Z"/><path class="cls-1" d="M452.61,160.35a2.9,2.9,0,0,0,1.14-.21,2.37,2.37,0,0,0,.85-.61,2.62,2.62,0,0,0,.53-1,4.23,4.23,0,0,0,.18-1.29v-8.09h3.17v8.09a6.37,6.37,0,0,1-.41,2.31,5.26,5.26,0,0,1-1.16,1.81,5.43,5.43,0,0,1-1.85,1.18,7.36,7.36,0,0,1-4.9,0,5.34,5.34,0,0,1-1.85-1.18,5.11,5.11,0,0,1-1.16-1.81,6.37,6.37,0,0,1-.41-2.31v-8.09h3.17v8.08a4.23,4.23,0,0,0,.18,1.29,2.92,2.92,0,0,0,.53,1,2.46,2.46,0,0,0,.85.61A3,3,0,0,0,452.61,160.35Z"/><path class="cls-1" d="M467.33,160.32h5.06v2.53h-8.23V149.19h3.17Z"/><path class="cls-1" d="M486.62,156a7.31,7.31,0,0,1-.51,2.75,7,7,0,0,1-1.44,2.22,6.68,6.68,0,0,1-2.24,1.48,7.72,7.72,0,0,1-2.9.53,7.81,7.81,0,0,1-2.91-.53,6.68,6.68,0,0,1-2.24-1.48,6.83,6.83,0,0,1-1.45-2.22,7.7,7.7,0,0,1,0-5.51,6.79,6.79,0,0,1,1.45-2.21,6.66,6.66,0,0,1,2.24-1.47,7.62,7.62,0,0,1,2.91-.54,7.53,7.53,0,0,1,2.9.54,6.68,6.68,0,0,1,2.24,1.48,6.82,6.82,0,0,1,1.44,2.21A7.35,7.35,0,0,1,486.62,156Zm-3.25,0a5.72,5.72,0,0,0-.26-1.82,3.9,3.9,0,0,0-.75-1.38,3.3,3.3,0,0,0-1.21-.86,4.11,4.11,0,0,0-1.62-.3,4.16,4.16,0,0,0-1.63.3,3.22,3.22,0,0,0-1.21.86,3.91,3.91,0,0,0-.76,1.38,6,6,0,0,0-.26,1.82,6.08,6.08,0,0,0,.26,1.83,3.86,3.86,0,0,0,.76,1.37,3.11,3.11,0,0,0,1.21.86,4.16,4.16,0,0,0,1.63.3,4.11,4.11,0,0,0,1.62-.3,3.19,3.19,0,0,0,1.21-.86,3.85,3.85,0,0,0,.75-1.37A5.78,5.78,0,0,0,483.37,156Z"/><path class="cls-1" d="M486.45,149.19H489a1.15,1.15,0,0,1,.67.19,1.05,1.05,0,0,1,.38.5l2.64,7.31c.12.32.24.66.36,1s.24.77.34,1.18c.09-.41.19-.81.31-1.18s.23-.72.34-1l2.62-7.31a1.09,1.09,0,0,1,.37-.47,1,1,0,0,1,.66-.22h2.57l-5.47,13.66h-2.87Z"/><path class="cls-1" d="M510.18,149.19v2.44h-5.6v3.19h4.29v2.34h-4.29v3.25h5.6v2.44h-8.79V149.19Z"/><path class="cls-1" d="M511.42,161.38a1.64,1.64,0,0,1,.12-.63,1.61,1.61,0,0,1,.35-.5,1.7,1.7,0,0,1,.52-.35,1.76,1.76,0,0,1,.66-.12,1.69,1.69,0,0,1,.64.12,1.75,1.75,0,0,1,.53.35,1.61,1.61,0,0,1,.35.5,1.59,1.59,0,0,1,0,1.26,1.57,1.57,0,0,1-.88.85,1.69,1.69,0,0,1-.64.12,1.76,1.76,0,0,1-.66-.12,1.51,1.51,0,0,1-.52-.34,1.54,1.54,0,0,1-.35-.51A1.64,1.64,0,0,1,511.42,161.38Z"/><path class="cls-2" d="M514.44,93.89a2.82,2.82,0,0,0,1.42.4c.81,0,1.28-.43,1.28-1.05s-.32-.9-1.15-1.22c-1-.35-1.62-.87-1.62-1.73a1.76,1.76,0,0,1,2-1.67,2.85,2.85,0,0,1,1.36.3l-.22.65a2.43,2.43,0,0,0-1.16-.29c-.84,0-1.16.5-1.16.92s.37.85,1.22,1.18c1,.4,1.56.9,1.56,1.8s-.7,1.76-2.14,1.76a3.18,3.18,0,0,1-1.57-.39Z"/><path class="cls-2" d="M524.21,92.16c-.05-.85-.1-1.88-.1-2.65h0c-.21.72-.47,1.49-.78,2.33l-1.08,3h-.6l-1-2.92c-.29-.87-.54-1.66-.71-2.39h0c0,.77-.06,1.8-.12,2.71l-.16,2.63h-.76l.43-6.13h1l1.05,3c.25.75.46,1.43.62,2.06h0c.16-.62.38-1.29.65-2.06l1.09-3h1l.38,6.13h-.77Z"/></svg>