<?xml version="1.0" encoding="utf-8"?>
<!-- Generator: Adobe Illustrator 22.0.1, SVG Export Plug-In . SVG Version: 6.00 Build 0)  -->
<svg version="1.1" id="Layer_1" xmlns="http://www.w3.org/2000/svg" xmlns:xlink="http://www.w3.org/1999/xlink" x="0px" y="0px"
	 viewBox="0 0 496.2 496.2" style="enable-background:new 0 0 496.2 496.2;" xml:space="preserve">
<style type="text/css">
	.st0{clip-path:url(#SVGID_2_);}
	.st1{clip-path:url(#SVGID_4_);fill:#8CC63F;}
	.st2{clip-path:url(#SVGID_4_);fill:#FFFFFF;}
</style>
<g>
	<g>
		<defs>
			<rect id="SVGID_1_" x="12.3" y="12" width="472" height="472"/>
		</defs>
		<clipPath id="SVGID_2_">
			<use xlink:href="#SVGID_1_"  style="overflow:visible;"/>
		</clipPath>
		<g class="st0">
			<defs>
				<rect id="SVGID_3_" x="12.3" y="12" width="472" height="472"/>
			</defs>
			<clipPath id="SVGID_4_">
				<use xlink:href="#SVGID_3_"  style="overflow:visible;"/>
			</clipPath>
			<path class="st1" d="M436.8,419.4c0,26.4-19.7,46.6-44,43.8C293,442.4,193,421.4,93.1,400.5c-24.3-3.1-44-22.2-44-43.9V120.4
				c0-16.1,19.6-36.3,44-43.8C193,55.6,293,34.7,392.8,13.8c24.2-7.9,44,11.1,44,43.8V419.4z"/>
			<path class="st2" d="M355.4,93c-18.3,1.1-36.6,2.3-54.9,3.5c-0.4,0-0.8-0.1-1.1,0c-48.9,3.2-97.6,6.3-146.4,9.5
				c-22.4,4.3-40.4,19.8-40.4,34.6c0,35.1-3.9,31.6,18.1,32.9c18.3,1.2,36.6,2.4,55,3.6c0.4,0,0.7,0.1,1.1,0.1
				c48.8,3.2,97.6,6.3,146.4,9.5c22.3-1.4,40.4-21.9,40.4-46.3C373.4,86.7,377.4,91.4,355.4,93"/>
			<path class="st2" d="M355.4,298.6c-18.3,1.2-36.6,2.4-54.9,3.6c-0.4,0.1-0.8,0-1.1,0.1c-48.9,3.2-97.6,6.3-146.4,9.4
				c-22.4,4.3-40.4,19.8-40.4,34.6c0,35.2-3.9,31.7,18.1,33c18.3,1.2,36.6,2.4,55,3.6c0.4,0,0.7,0.1,1.1,0.1
				c48.8,3.2,97.6,6.3,146.4,9.5c22.3-1.4,40.4-21.9,40.4-46.3C373.4,292.4,377.4,297.1,355.4,298.6"/>
			<path class="st2" d="M373.5,243.5c0-18.8-18.1-33.8-40.5-33.3c-48.8-3.8-97.6-7.5-146.4-11.3c-0.3,0-0.7,0.1-1.1,0.1
				c-18.3-1.4-36.6-2.8-54.9-4.3c-22-1.6-18.1-6.8-18.1,49.1c0,31,18.1,52.4,40.4,47.1c48.8-3.8,97.6-7.6,146.4-11.3
				c0.4-0.1,0.7-0.2,1.1-0.2c18.3-1.5,36.6-2.9,54.9-4.3C377.4,273.4,373.5,277.2,373.5,243.5"/>
		</g>
	</g>
</g>
</svg>
